{
	"asset":{
		"generator":"Khronos glTF Blender I/O v3.6.27",
		"version":"2.0"
	},
	"scene":0,
	"scenes":[
		{
			"name":"Scene",
			"nodes":[
				0,
				1,
				2,
				3,
				4,
				5,
				6,
				7,
				8,
				9,
				10,
				11,
				12
			]
		}
	],
	"nodes":[
		{
			"mesh":0,
			"name":"\u5e73\u9762",
			"scale":[
				1.3555822372436523,
				1.868622064590454,
				1.868622064590454
			]
		},
		{
			"mesh":1,
			"name":"\u67f1\u4f53",
			"scale":[
				0.09952114522457123,
				0.03459034860134125,
				0.09952114522457123
			],
			"translation":[
				0.1416301280260086,
				0.03138956055045128,
				-0.23641110956668854
			]
		},
		{
			"mesh":2,
			"name":"\u7acb\u65b9\u4f53.002",
			"rotation":[
				0,
				-0.7071068286895752,
				0,
				0.7071068286895752
			],
			"scale":[
				0.05241388827562332,
				0.012792224064469337,
				0.012792224064469337
			],
			"translation":[
				0.8086998462677002,
				0.015682388097047806,
				0.5902855396270752
			]
		},
		{
			"mesh":3,
			"name":"\u7acb\u65b9\u4f53.001",
			"rotation":[
				0,
				-0.7071068286895752,
				0,
				0.7071068286895752
			],
			"scale":[
				0.05241388827562332,
				0.012792224064469337,
				0.012792224064469337
			],
			"translation":[
				0.8086998462677002,
				0.015682388097047806,
				0.33007270097732544
			]
		},
		{
			"mesh":4,
			"name":"\u7acb\u65b9\u4f53.003",
			"rotation":[
				0,
				-0.7071068286895752,
				0,
				0.7071068286895752
			],
			"scale":[
				0.05241388827562332,
				0.012792224064469337,
				0.012792224064469337
			],
			"translation":[
				0.8086998462677002,
				0.015682388097047806,
				0.8075180053710938
			]
		},
		{
			"mesh":5,
			"name":"\u7acb\u65b9\u4f53.004",
			"rotation":[
				0,
				-0.7071068286895752,
				0,
				0.7071068286895752
			],
			"scale":[
				0.05241388827562332,
				0.012792224064469337,
				0.012792224064469337
			],
			"translation":[
				0.6084855794906616,
				0.015682388097047806,
				0.812152624130249
			]
		},
		{
			"mesh":6,
			"name":"\u7acb\u65b9\u4f53.005",
			"rotation":[
				0,
				0.7071068286895752,
				0,
				0.7071068286895752
			],
			"scale":[
				0.05241388827562332,
				0.012792224064469337,
				0.012792224064469337
			],
			"translation":[
				0.33388614654541016,
				0.015682388097047806,
				0.8080973625183105
			]
		},
		{
			"mesh":7,
			"name":"\u7acb\u65b9\u4f53.006",
			"rotation":[
				0,
				0.7071068286895752,
				0,
				0.7071068286895752
			],
			"scale":[
				0.05241388827562332,
				0.012792224064469337,
				0.012792224064469337
			],
			"translation":[
				0.33284464478492737,
				0.015682388097047806,
				0.5870274305343628
			]
		},
		{
			"mesh":8,
			"name":"\u7acb\u65b9\u4f53.007",
			"rotation":[
				0,
				-0.7071068286895752,
				0,
				0.7071068286895752
			],
			"scale":[
				0.05241388827562332,
				0.012792224064469337,
				0.012792224064469337
			],
			"translation":[
				0.8086998462677002,
				0.015682388097047806,
				0.10546034574508667
			]
		},
		{
			"mesh":9,
			"name":"\u67f1\u4f53.001",
			"scale":[
				0.05022018030285835,
				0.01095773745328188,
				0.05022018030285835
			],
			"translation":[
				0.34569498896598816,
				0.03301452100276947,
				0.3337463140487671
			]
		},
		{
			"mesh":10,
			"name":"\u67f1\u4f53.002",
			"scale":[
				0.03754254803061485,
				0.016343824565410614,
				0.03754254803061485
			],
			"translation":[
				0.5107806324958801,
				0.01163315586745739,
				0.062222205102443695
			]
		},
		{
			"mesh":11,
			"name":"\u7acb\u65b9\u4f53",
			"scale":[
				0.02523045241832733,
				0.012261340394616127,
				0.02523045241832733
			],
			"translation":[
				0.5432671308517456,
				0.008949903771281242,
				0.3870953917503357
			]
		},
		{
			"mesh":12,
			"name":"\u7acb\u65b9\u4f53.008",
			"rotation":[
				0,
				-0.7071068286895752,
				0,
				0.7071068286895752
			],
			"scale":[
				0.05241388827562332,
				0.012792224064469337,
				0.012792224064469337
			],
			"translation":[
				0.8086998462677002,
				0.015682388097047806,
				1.172781229019165
			]
		}
	],
	"materials":[
		{
			"doubleSided":true,
			"name":"\u6750\u8d28",
			"pbrMetallicRoughness":{
				"baseColorTexture":{
					"index":0
				},
				"metallicFactor":0,
				"roughnessFactor":0.5
			}
		}
	],
	"meshes":[
		{
			"name":"\u5e73\u9762",
			"primitives":[
				{
					"attributes":{
						"POSITION":0,
						"NORMAL":1,
						"TEXCOORD_0":2
					},
					"indices":3,
					"material":0
				}
			]
		},
		{
			"name":"\u67f1\u4f53",
			"primitives":[
				{
					"attributes":{
						"POSITION":4,
						"NORMAL":5,
						"TEXCOORD_0":6
					},
					"indices":7
				}
			]
		},
		{
			"name":"\u7acb\u65b9\u4f53.002",
			"primitives":[
				{
					"attributes":{
						"POSITION":8,
						"NORMAL":9,
						"TEXCOORD_0":10
					},
					"indices":11
				}
			]
		},
		{
			"name":"\u7acb\u65b9\u4f53.003",
			"primitives":[
				{
					"attributes":{
						"POSITION":12,
						"NORMAL":13,
						"TEXCOORD_0":14
					},
					"indices":11
				}
			]
		},
		{
			"name":"\u7acb\u65b9\u4f53.004",
			"primitives":[
				{
					"attributes":{
						"POSITION":15,
						"NORMAL":16,
						"TEXCOORD_0":17
					},
					"indices":11
				}
			]
		},
		{
			"name":"\u7acb\u65b9\u4f53.005",
			"primitives":[
				{
					"attributes":{
						"POSITION":18,
						"NORMAL":19,
						"TEXCOORD_0":20
					},
					"indices":11
				}
			]
		},
		{
			"name":"\u7acb\u65b9\u4f53.006",
			"primitives":[
				{
					"attributes":{
						"POSITION":21,
						"NORMAL":22,
						"TEXCOORD_0":23
					},
					"indices":11
				}
			]
		},
		{
			"name":"\u7acb\u65b9\u4f53.007",
			"primitives":[
				{
					"attributes":{
						"POSITION":24,
						"NORMAL":25,
						"TEXCOORD_0":26
					},
					"indices":11
				}
			]
		},
		{
			"name":"\u7acb\u65b9\u4f53.008",
			"primitives":[
				{
					"attributes":{
						"POSITION":27,
						"NORMAL":28,
						"TEXCOORD_0":29
					},
					"indices":30
				}
			]
		},
		{
			"name":"\u67f1\u4f53.001",
			"primitives":[
				{
					"attributes":{
						"POSITION":31,
						"NORMAL":32,
						"TEXCOORD_0":33
					},
					"indices":34
				}
			]
		},
		{
			"name":"\u67f1\u4f53.002",
			"primitives":[
				{
					"attributes":{
						"POSITION":35,
						"NORMAL":36,
						"TEXCOORD_0":37
					},
					"indices":38
				}
			]
		},
		{
			"name":"\u7acb\u65b9\u4f53.009",
			"primitives":[
				{
					"attributes":{
						"POSITION":39,
						"NORMAL":40,
						"TEXCOORD_0":41
					},
					"indices":42
				}
			]
		},
		{
			"name":"\u7acb\u65b9\u4f53.010",
			"primitives":[
				{
					"attributes":{
						"POSITION":43,
						"NORMAL":44,
						"TEXCOORD_0":45
					},
					"indices":30
				}
			]
		}
	],
	"textures":[
		{
			"sampler":0,
			"source":0
		}
	],
	"images":[
		{
			"bufferView":4,
			"mimeType":"image/jpeg",
			"name":"9c5701a3-630f-4b65-acec-161436c2ef89"
		}
	],
	"accessors":[
		{
			"bufferView":0,
			"componentType":5126,
			"count":16,
			"max":[
				0.7146464586257935,
				0,
				0.7179487347602844
			],
			"min":[
				-0.953182578086853,
				0,
				-0.8176601529121399
			],
			"type":"VEC3"
		},
		{
			"bufferView":1,
			"componentType":5126,
			"count":16,
			"type":"VEC3"
		},
		{
			"bufferView":2,
			"componentType":5126,
			"count":16,
			"type":"VEC2"
		},
		{
			"bufferView":3,
			"componentType":5123,
			"count":42,
			"type":"SCALAR"
		},
		{
			"bufferView":5,
			"componentType":5126,
			"count":117,
			"max":[
				0.9977567791938782,
				1.0000001192092896,
				0.9977567791938782
			],
			"min":[
				-1.138481616973877,
				-1.0994038581848145,
				-0.9977567791938782
			],
			"type":"VEC3"
		},
		{
			"bufferView":6,
			"componentType":5126,
			"count":117,
			"type":"VEC3"
		},
		{
			"bufferView":7,
			"componentType":5126,
			"count":117,
			"type":"VEC2"
		},
		{
			"bufferView":8,
			"componentType":5123,
			"count":348,
			"type":"SCALAR"
		},
		{
			"bufferView":9,
			"componentType":5126,
			"count":204,
			"max":[
				1.27400803565979,
				3.1050162315368652,
				8.436870574951172
			],
			"min":[
				-1.3486826419830322,
				-1.429861068725586,
				-3.2803425788879395
			],
			"type":"VEC3"
		},
		{
			"bufferView":10,
			"componentType":5126,
			"count":204,
			"type":"VEC3"
		},
		{
			"bufferView":11,
			"componentType":5126,
			"count":204,
			"type":"VEC2"
		},
		{
			"bufferView":12,
			"componentType":5123,
			"count":420,
			"type":"SCALAR"
		},
		{
			"bufferView":13,
			"componentType":5126,
			"count":204,
			"max":[
				1.27400803565979,
				3.1050162315368652,
				8.436870574951172
			],
			"min":[
				-1.3486826419830322,
				-1.429861068725586,
				-3.2803425788879395
			],
			"type":"VEC3"
		},
		{
			"bufferView":14,
			"componentType":5126,
			"count":204,
			"type":"VEC3"
		},
		{
			"bufferView":15,
			"componentType":5126,
			"count":204,
			"type":"VEC2"
		},
		{
			"bufferView":16,
			"componentType":5126,
			"count":204,
			"max":[
				1.27400803565979,
				3.1050162315368652,
				8.436870574951172
			],
			"min":[
				-1.3486826419830322,
				-1.429861068725586,
				-3.2803425788879395
			],
			"type":"VEC3"
		},
		{
			"bufferView":17,
			"componentType":5126,
			"count":204,
			"type":"VEC3"
		},
		{
			"bufferView":18,
			"componentType":5126,
			"count":204,
			"type":"VEC2"
		},
		{
			"bufferView":19,
			"componentType":5126,
			"count":204,
			"max":[
				1.27400803565979,
				3.1050162315368652,
				8.436870574951172
			],
			"min":[
				-1.3486826419830322,
				-1.429861068725586,
				-3.2803425788879395
			],
			"type":"VEC3"
		},
		{
			"bufferView":20,
			"componentType":5126,
			"count":204,
			"type":"VEC3"
		},
		{
			"bufferView":21,
			"componentType":5126,
			"count":204,
			"type":"VEC2"
		},
		{
			"bufferView":22,
			"componentType":5126,
			"count":204,
			"max":[
				1.27400803565979,
				3.1050162315368652,
				8.436870574951172
			],
			"min":[
				-1.3486826419830322,
				-1.429861068725586,
				-3.2803425788879395
			],
			"type":"VEC3"
		},
		{
			"bufferView":23,
			"componentType":5126,
			"count":204,
			"type":"VEC3"
		},
		{
			"bufferView":24,
			"componentType":5126,
			"count":204,
			"type":"VEC2"
		},
		{
			"bufferView":25,
			"componentType":5126,
			"count":204,
			"max":[
				1.27400803565979,
				3.1050162315368652,
				8.436870574951172
			],
			"min":[
				-1.3486826419830322,
				-1.429861068725586,
				-3.2803425788879395
			],
			"type":"VEC3"
		},
		{
			"bufferView":26,
			"componentType":5126,
			"count":204,
			"type":"VEC3"
		},
		{
			"bufferView":27,
			"componentType":5126,
			"count":204,
			"type":"VEC2"
		},
		{
			"bufferView":28,
			"componentType":5126,
			"count":342,
			"max":[
				1.27400803565979,
				3.1050162315368652,
				8.436870574951172
			],
			"min":[
				-3.3126373291015625,
				-1.429861068725586,
				-3.2803425788879395
			],
			"type":"VEC3"
		},
		{
			"bufferView":29,
			"componentType":5126,
			"count":342,
			"type":"VEC3"
		},
		{
			"bufferView":30,
			"componentType":5126,
			"count":342,
			"type":"VEC2"
		},
		{
			"bufferView":31,
			"componentType":5123,
			"count":696,
			"type":"SCALAR"
		},
		{
			"bufferView":32,
			"componentType":5126,
			"count":90,
			"max":[
				2.7038795948028564,
				1,
				1.4551523923873901
			],
			"min":[
				-1,
				-3.085016965866089,
				-1
			],
			"type":"VEC3"
		},
		{
			"bufferView":33,
			"componentType":5126,
			"count":90,
			"type":"VEC3"
		},
		{
			"bufferView":34,
			"componentType":5126,
			"count":90,
			"type":"VEC2"
		},
		{
			"bufferView":35,
			"componentType":5123,
			"count":216,
			"type":"SCALAR"
		},
		{
			"bufferView":36,
			"componentType":5126,
			"count":366,
			"max":[
				3.1200029850006104,
				2.774966239929199,
				2.929206609725952
			],
			"min":[
				-3.148393392562866,
				-1.1218960285186768,
				-3.5737974643707275
			],
			"type":"VEC3"
		},
		{
			"bufferView":37,
			"componentType":5126,
			"count":366,
			"type":"VEC3"
		},
		{
			"bufferView":38,
			"componentType":5126,
			"count":366,
			"type":"VEC2"
		},
		{
			"bufferView":39,
			"componentType":5123,
			"count":1068,
			"type":"SCALAR"
		},
		{
			"bufferView":40,
			"componentType":5126,
			"count":24,
			"max":[
				3.547517776489258,
				1,
				1
			],
			"min":[
				-1,
				-1,
				-1
			],
			"type":"VEC3"
		},
		{
			"bufferView":41,
			"componentType":5126,
			"count":24,
			"type":"VEC3"
		},
		{
			"bufferView":42,
			"componentType":5126,
			"count":24,
			"type":"VEC2"
		},
		{
			"bufferView":43,
			"componentType":5123,
			"count":36,
			"type":"SCALAR"
		},
		{
			"bufferView":44,
			"componentType":5126,
			"count":342,
			"max":[
				1.5627727508544922,
				3.1050162315368652,
				8.436870574951172
			],
			"min":[
				-3.4950809478759766,
				-1.429861068725586,
				-3.2803425788879395
			],
			"type":"VEC3"
		},
		{
			"bufferView":45,
			"componentType":5126,
			"count":342,
			"type":"VEC3"
		},
		{
			"bufferView":46,
			"componentType":5126,
			"count":342,
			"type":"VEC2"
		}
	],
	"bufferViews":[
		{
			"buffer":0,
			"byteLength":192,
			"byteOffset":0,
			"target":34962
		},
		{
			"buffer":0,
			"byteLength":192,
			"byteOffset":192,
			"target":34962
		},
		{
			"buffer":0,
			"byteLength":128,
			"byteOffset":384,
			"target":34962
		},
		{
			"buffer":0,
			"byteLength":84,
			"byteOffset":512,
			"target":34963
		},
		{
			"buffer":0,
			"byteLength":151566,
			"byteOffset":596
		},
		{
			"buffer":0,
			"byteLength":1404,
			"byteOffset":152164,
			"target":34962
		},
		{
			"buffer":0,
			"byteLength":1404,
			"byteOffset":153568,
			"target":34962
		},
		{
			"buffer":0,
			"byteLength":936,
			"byteOffset":154972,
			"target":34962
		},
		{
			"buffer":0,
			"byteLength":696,
			"byteOffset":155908,
			"target":34963
		},
		{
			"buffer":0,
			"byteLength":2448,
			"byteOffset":156604,
			"target":34962
		},
		{
			"buffer":0,
			"byteLength":2448,
			"byteOffset":159052,
			"target":34962
		},
		{
			"buffer":0,
			"byteLength":1632,
			"byteOffset":161500,
			"target":34962
		},
		{
			"buffer":0,
			"byteLength":840,
			"byteOffset":163132,
			"target":34963
		},
		{
			"buffer":0,
			"byteLength":2448,
			"byteOffset":163972,
			"target":34962
		},
		{
			"buffer":0,
			"byteLength":2448,
			"byteOffset":166420,
			"target":34962
		},
		{
			"buffer":0,
			"byteLength":1632,
			"byteOffset":168868,
			"target":34962
		},
		{
			"buffer":0,
			"byteLength":2448,
			"byteOffset":170500,
			"target":34962
		},
		{
			"buffer":0,
			"byteLength":2448,
			"byteOffset":172948,
			"target":34962
		},
		{
			"buffer":0,
			"byteLength":1632,
			"byteOffset":175396,
			"target":34962
		},
		{
			"buffer":0,
			"byteLength":2448,
			"byteOffset":177028,
			"target":34962
		},
		{
			"buffer":0,
			"byteLength":2448,
			"byteOffset":179476,
			"target":34962
		},
		{
			"buffer":0,
			"byteLength":1632,
			"byteOffset":181924,
			"target":34962
		},
		{
			"buffer":0,
			"byteLength":2448,
			"byteOffset":183556,
			"target":34962
		},
		{
			"buffer":0,
			"byteLength":2448,
			"byteOffset":186004,
			"target":34962
		},
		{
			"buffer":0,
			"byteLength":1632,
			"byteOffset":188452,
			"target":34962
		},
		{
			"buffer":0,
			"byteLength":2448,
			"byteOffset":190084,
			"target":34962
		},
		{
			"buffer":0,
			"byteLength":2448,
			"byteOffset":192532,
			"target":34962
		},
		{
			"buffer":0,
			"byteLength":1632,
			"byteOffset":194980,
			"target":34962
		},
		{
			"buffer":0,
			"byteLength":4104,
			"byteOffset":196612,
			"target":34962
		},
		{
			"buffer":0,
			"byteLength":4104,
			"byteOffset":200716,
			"target":34962
		},
		{
			"buffer":0,
			"byteLength":2736,
			"byteOffset":204820,
			"target":34962
		},
		{
			"buffer":0,
			"byteLength":1392,
			"byteOffset":207556,
			"target":34963
		},
		{
			"buffer":0,
			"byteLength":1080,
			"byteOffset":208948,
			"target":34962
		},
		{
			"buffer":0,
			"byteLength":1080,
			"byteOffset":210028,
			"target":34962
		},
		{
			"buffer":0,
			"byteLength":720,
			"byteOffset":211108,
			"target":34962
		},
		{
			"buffer":0,
			"byteLength":432,
			"byteOffset":211828,
			"target":34963
		},
		{
			"buffer":0,
			"byteLength":4392,
			"byteOffset":212260,
			"target":34962
		},
		{
			"buffer":0,
			"byteLength":4392,
			"byteOffset":216652,
			"target":34962
		},
		{
			"buffer":0,
			"byteLength":2928,
			"byteOffset":221044,
			"target":34962
		},
		{
			"buffer":0,
			"byteLength":2136,
			"byteOffset":223972,
			"target":34963
		},
		{
			"buffer":0,
			"byteLength":288,
			"byteOffset":226108,
			"target":34962
		},
		{
			"buffer":0,
			"byteLength":288,
			"byteOffset":226396,
			"target":34962
		},
		{
			"buffer":0,
			"byteLength":192,
			"byteOffset":226684,
			"target":34962
		},
		{
			"buffer":0,
			"byteLength":72,
			"byteOffset":226876,
			"target":34963
		},
		{
			"buffer":0,
			"byteLength":4104,
			"byteOffset":226948,
			"target":34962
		},
		{
			"buffer":0,
			"byteLength":4104,
			"byteOffset":231052,
			"target":34962
		},
		{
			"buffer":0,
			"byteLength":2736,
			"byteOffset":235156,
			"target":34962
		}
	],
	"samplers":[
		{
			"magFilter":9729,
			"minFilter":9987
		}
	],
	"buffers":[
		{
			"byteLength":237892,
			"uri":"data:application/octet-stream;base64,"
		}
	]
}
